<?xml version="1.0" encoding="UTF-8"?>
<svg id="text" xmlns="http://www.w3.org/2000/svg" viewBox="0 0 800.6 533.02">
  <defs>
    <style>
      .cls-1 {
        fill: #fff;
      }
    </style>
  </defs>
  <path class="cls-1" d="m355.24,516.18c-.19,0-.39,0-.58-.01-10.03-.23-16.63-3.27-20.19-9.31-3.71-6.29-5.65-14.2-5.76-23.5-.12-9.51.94-19.88,3.16-30.82,2.28-11.27,4.31-21.6,6.04-30.73,1.8-9.47,2.52-17.28,2.16-23.21-.51-8.38-5.69-9.63-8.72-9.63-.6,0-1.23.04-1.89.13-5.1.76-10.95,3.42-17.89,8.14-6.66,4.52-13.77,10-21.12,16.29-7.35,6.28-14.79,13.12-22.11,20.33-7.34,7.22-14.17,14.17-20.28,20.64-6.03,6.38-11.4,11.99-15.95,16.66-5.4,5.54-7.83,7.65-8.92,8.44-2.25,1.42-4.26,2.14-5.98,2.14s-3.36-.43-4.83-1.31c-1.52-.92-2.7-2.04-3.61-3.45-.9-1.4-1.46-2.8-1.66-4.17-.43-3.43.44-8.45,2.58-14.88,2.23-6.68,5.19-14.02,8.79-21.8,3.63-7.84,7.79-16.11,12.37-24.56,4.64-8.56,8.99-16.5,12.95-23.59,3.79-6.81,7.11-12.77,9.96-17.9l.51-.92c3.03-5.46,4.86-8.94,5.59-10.66l.03-.08.03-.08c.88-2.66,2.6-5.97,5.11-9.84,2.53-3.91,5.51-7.77,8.86-11.46,3.3-3.64,6.87-6.75,10.63-9.26,3.23-2.15,6.52-3.24,9.79-3.24.29,0,.58,0,.88.03,5.92.4,9.5,1.82,10.07,4.01.69,2.65-.08,5.9-2.28,9.67-2.38,4.08-5.79,8.3-10.14,12.53-4.41,4.3-8.4,7.76-11.86,10.29l-.07.05-.06.06c-2.03,1.78-5.09,5.48-9.35,11.33-4.14,5.68-8.65,12.41-13.39,20-4.73,7.57-9.52,15.53-14.23,23.66-4.72,8.14-8.69,15.47-11.78,21.78-3.17,6.46-5.13,11.23-6,14.58-.35,1.34-.63,3.03.3,4.23.51.66,1.27,1.02,2.14,1.02,1.11,0,2.33-.58,4.09-1.93l.12-.09.11-.11c13.17-13.87,25.7-26.76,37.24-38.3,4.98-4.98,10.11-9.99,15.23-14.88,5.17-4.94,10.17-9.59,14.87-13.8,4.67-4.2,9-7.95,12.89-11.12,3.8-3.11,6.98-5.37,9.45-6.71,4.93-2.91,9.49-4.37,13.6-4.37s7.71,1.03,10.8,3.05c3.11,2.04,5.62,5,7.46,8.79,1.89,3.91,3.08,8.28,3.54,12.98.12.87.02,3.32-1.9,10.85-1.53,5.98-3.16,12.84-4.98,21-1.78,7.97-3.46,16.42-4.99,25.12-1.56,8.84-2.28,17.03-2.16,24.34.12,7.47,1.38,13.84,3.74,18.91,2.45,5.3,6.93,8.1,12.94,8.1.28,0,.56,0,.85-.02h0c3.4,0,8.16-1.9,14.46-5.8,5.94-3.68,12.81-8.63,20.43-14.69,7.56-6.03,15.83-13.04,24.58-20.84,8.77-7.83,17.58-16.15,26.17-24.75,8.6-8.6,16.98-17.4,24.92-26.16,7.89-8.71,15.03-17.11,21.21-24.95,2.19-2.78,4.25-4.3,5.99-4.39.13,0,.26,0,.39,0,1.57,0,2.79.49,3.72,1.5,1.08,1.17,1.6,2.76,1.6,4.86s-.85,3.93-2.61,5.69c-.43.43-7.22,7.76-9.28,10-6.03,6.51-13.55,14.5-22.35,23.77-8.97,9.44-19.16,19.69-30.29,30.47-11.15,10.79-22.28,20.98-33.1,30.27-10.76,9.24-21.02,17.01-30.48,23.09-8.86,5.69-16.1,8.57-21.52,8.57Z"/>
  <path class="cls-1" d="m515.19,495.76c-2.07,0-4.13-.12-6.12-.35-10.42-1.23-18.58-7.46-24.93-19.03-4.06-7.45-5.83-17.6-5.26-30.19.58-12.8,3.01-27.53,7.22-43.79,4.23-16.31,10.05-34.16,17.32-53.03,7.28-18.92,15.69-38.58,24.97-58.44,9.3-19.91,19.44-40.12,30.13-60.07,10.71-20.01,21.8-39.45,32.96-57.77,11.13-18.29,22.34-35.64,33.31-51.56,10.94-15.88,21.36-29.81,30.95-41.39,9.58-11.57,18.34-20.8,26.04-27.45,7.4-6.39,13.41-9.63,17.86-9.63,2.01,0,3.49.67,4.66,2.1,1.36,1.68,2.5,3.97,3.37,6.78.89,2.89,1.39,6.24,1.51,9.94.11,3.8.05,7.62-.17,11.35-.46,5.69-3.05,15.31-7.7,28.57-4.69,13.36-11.29,29.06-19.62,46.66-8.33,17.6-18.4,36.72-29.92,56.84-11.51,20.08-24.55,40.02-38.75,59.27-14.2,19.24-29.73,37.44-46.14,54.1-16.37,16.61-33.68,30.48-51.44,41.23l-.59.35-.25.64c-4.73,12.3-8.87,24.17-12.29,35.27-3.45,11.17-6.03,21.58-7.69,30.95-1.67,9.44-2.4,18-2.16,25.44.24,7.64,1.89,14.06,4.9,19.07,4.81,8.43,11.89,12.72,21.01,12.72.52,0,1.04-.01,1.57-.04,9.36-.48,19.84-3.72,31.17-9.63,11.18-5.83,22.93-13.6,34.93-23.1,11.93-9.45,23.26-19.22,33.68-29.04,10.38-9.79,19.55-19.02,27.26-27.44,7.83-8.56,12.95-14.74,15.65-18.9l.06-.1c.58-1.02,1.16-1.16,1.71-1.16.12,0,.25,0,.38.03,1.33.18,2.47.75,3.46,1.74,1.03,1.04,1.73,2.4,2.12,4.17.34,1.53-.12,3.07-1.4,4.73-2.79,3.73-8.48,10.24-16.93,19.39-8.46,9.16-18.63,19.21-30.24,29.88-11.59,10.66-24.37,21.12-37.99,31.1-13.54,9.92-26.9,17.73-39.72,23.2-10.25,4.38-19.97,6.6-28.89,6.6ZM692.34,61.41c-.12,0-.23,0-.36.02-2.04.21-5.55,1.87-14.66,12.97-6.5,7.92-14.47,18.65-23.7,31.9-9.21,13.22-19.44,28.84-30.41,46.41-11.02,17.65-22.26,36.61-33.41,56.34-11.23,19.85-22.41,40.48-33.23,61.3-10.87,20.91-20.8,41.55-29.52,61.35l-2.86,6.5,5.83-4.05c17.09-11.87,33.58-26.97,49.01-44.89,15.36-17.85,29.69-37.09,42.59-57.2,12.87-20.06,24.49-40.37,34.54-60.35,10.05-19.99,18.38-38.25,24.74-54.3,6.39-16.09,10.84-29.26,13.22-39.14,2.69-11.17,1.96-14.1.77-15.61-.63-.8-1.54-1.24-2.55-1.24Z"/>
  <path class="cls-1" d="m650.95,483.52c-5.04,0-7.96-2.13-9.2-6.7-1.47-5.4-1.63-12.48-.48-21.04,1.16-8.72,3.35-18.53,6.5-29.16,3.19-10.74,6.46-20.92,9.73-30.26,3.19-9.12,6.12-17.42,8.69-24.66,3.45-9.67,3.66-12.51,3.47-13.9l-.02-.12c-.39-1.95.05-4.49,1.31-7.54,1.34-3.23,3.26-6.34,5.71-9.23,2.38-2.82,5.3-4.96,8.66-6.37,1.65-.69,3.4-1.04,5.19-1.04,1.68,0,3.47.31,5.3.92,3.84,1.42,6.11,3.42,6.88,6.11.84,2.96.83,6.26-.02,9.81-.9,3.71-2.33,7.37-4.25,10.87-1.99,3.63-3.57,6.5-4.75,8.62-1.01,1.53-3,5.05-6.08,10.74-3.02,5.57-6.55,12.21-10.49,19.73-3.88,7.42-7.84,15.45-11.76,23.87-3.93,8.45-7.06,16.17-9.31,22.93-2.35,7.03-3.43,12.54-3.3,16.84.18,6.16,4.34,6.83,6.12,6.83.78,0,1.63-.11,2.55-.33,13.65-3.11,27.25-9.18,40.42-18.04,13.12-8.82,25.09-19.95,35.59-33.07,10.48-13.1,19.36-28.37,26.38-45.39,7.03-17.04,11.2-35.59,12.39-55.13.45-5.39,1.65-10.37,3.56-14.76,1.8-4.14,4.27-6.75,7.57-7.98,1.17-.39,2.62-.65,4.23-.77.12,0,.26-.01.39-.01,1.17,0,2.25.35,3.31,1.08,1.21.83,2.34,2.51,3.38,4.98,1.08,2.6,1.75,6.67,1.98,12.09.22,9.4-1.65,20.22-5.58,32.13-3.96,12.01-9.58,24.36-16.7,36.73-7.13,12.38-15.66,24.71-25.38,36.65-9.7,11.92-20.24,22.7-31.33,32.04-11.06,9.32-22.75,17.05-34.74,22.99-11.89,5.88-23.74,9.1-35.22,9.56-.23,0-.46.01-.68.01Z"/>
</svg>